<svg width="800" height="537" viewBox="0 0 800 537" fill="none" xmlns="http://www.w3.org/2000/svg">
<rect x="196" y="201.764" width="294" height="198" fill="black"/>
<path d="M0 0H124V496.786H70.0861V452.117H48.0538V324.567H70.0861V231.834H48.0538V104.288H70.0861V53.9137H0V0ZM800 169.153V450.352C800 474.17 780.693 493.49 756.872 493.49H756.828V536.264H481.437V493.49H455.306V536.264H179.915V493.49H155.768V126.029H756.872C780.693 126.029 800 145.335 800 169.153ZM214.625 491.348H200.893V522.244H214.625V491.348ZM242.088 491.348H228.357V522.244H242.088V491.348ZM269.551 491.348H255.82V522.244H269.551V491.348ZM297.015 491.348H283.283V522.244H297.015V491.348ZM305.48 310.307H271.192V323.781H290.276V330.451C282.892 339.081 274.622 343.393 265.459 343.393C261.457 343.393 257.742 342.573 254.32 340.922C250.894 339.277 247.938 337.032 245.449 334.186C242.957 331.34 240.997 327.979 239.575 324.111C238.154 320.242 237.444 316.084 237.444 311.635C237.444 307.365 238.089 303.317 239.376 299.493C240.667 295.672 242.49 292.288 244.848 289.352C247.207 286.421 250.053 284.107 253.389 282.415C256.723 280.726 260.392 279.881 264.395 279.881C269.462 279.881 274.155 281.124 278.474 283.616C282.785 286.108 286.143 289.709 288.546 294.423L302.291 284.282C299.085 277.966 294.306 272.94 287.945 269.205C281.584 265.466 273.956 263.599 265.065 263.599C258.48 263.599 252.39 264.866 246.788 267.399C241.182 269.936 236.311 273.359 232.177 277.674C228.041 281.989 224.793 287.015 222.435 292.751C220.076 298.487 218.902 304.605 218.902 311.096C218.902 317.949 220.08 324.327 222.435 330.242C224.793 336.16 227.993 341.299 232.044 345.652C236.088 350.012 240.846 353.438 246.318 355.927C251.79 358.419 257.636 359.662 263.863 359.662C273.915 359.662 282.717 355.882 290.279 348.319V358.992H305.487V310.307H305.48ZM324.478 491.348H310.746V522.244H324.478V491.348ZM351.941 491.348H338.209V522.244H351.941V491.348ZM379.404 491.348H365.673V522.244H379.404V491.348ZM384.866 264.275H321.223V359.006H339.634V319.778H377.262V304.835H339.638V280.42H384.869L384.866 264.275ZM406.868 491.348H393.136V522.244H406.868V491.348ZM434.331 491.348H420.599V522.244H434.331V491.348ZM440.771 312.308L474.527 264.275H454.647L431.166 299.5L407.547 264.275H387.537L421.293 312.308L388.604 359.003H408.618L431.166 325.113L453.579 359.003H473.459L440.771 312.308ZM516.151 491.348H502.419V522.244H516.151V491.348ZM543.614 491.348H529.882V522.244H543.614V491.348ZM571.077 491.348H557.345V522.244H571.077V491.348ZM598.54 491.348H584.809V522.244H598.54V491.348ZM626.003 491.348H612.272V522.244H626.003V491.348ZM653.467 491.348H639.735V522.244H653.467V491.348ZM680.93 491.348H667.198V522.244H680.93V491.348ZM708.393 491.348H694.661V522.244H708.393V491.348ZM735.856 491.348H722.125V522.244H735.856V491.348ZM747.435 316.795C747.435 250.444 693.642 196.643 627.284 196.643C560.926 196.643 507.132 250.444 507.132 316.795C507.132 383.143 560.926 436.947 627.284 436.947C693.642 436.947 747.435 383.143 747.435 316.795ZM691.987 318.707C694.943 317.114 697.902 315.535 700.81 313.966C703.697 312.322 706.543 310.702 709.292 309.133C712.052 307.554 714.727 306.036 717.233 304.464C717.428 304.347 717.614 304.231 717.806 304.107C714.62 281.162 702.924 260.928 685.99 246.733C685.756 247.049 685.509 247.392 685.262 247.722C684.208 249.177 683.024 250.798 681.733 252.572C680.353 254.357 678.867 256.287 677.284 258.336C675.732 260.396 673.975 262.524 672.159 264.735C670.339 266.956 668.458 269.246 666.549 271.587C664.555 273.867 662.533 276.194 660.504 278.532C660.497 278.532 660.49 278.542 660.48 278.556C660.621 276.297 660.762 274.004 660.909 271.68C661.105 268.395 661.156 265.054 661.283 261.714C661.39 258.36 661.5 255.01 661.603 251.711C661.62 248.377 661.63 245.109 661.644 241.937C661.664 238.755 661.678 235.676 661.572 232.723C661.572 232.483 661.561 232.277 661.555 232.044C650.964 227.749 639.405 225.38 627.28 225.38C616.268 225.38 605.718 227.327 595.938 230.887C596.106 231.261 596.278 231.656 596.453 232.044C597.177 233.685 597.998 235.521 598.89 237.536C599.745 239.617 600.675 241.872 601.654 244.265C602.663 246.64 603.631 249.222 604.634 251.899C605.646 254.598 606.693 257.361 607.751 260.176C608.739 263.053 609.742 265.971 610.748 268.889C610.751 268.903 610.754 268.906 610.765 268.93C608.873 267.674 606.965 266.407 605.015 265.113C602.275 263.307 599.416 261.587 596.577 259.802C593.727 258.041 590.875 256.27 588.07 254.529C585.193 252.857 582.368 251.203 579.628 249.606C576.885 248.003 574.228 246.455 571.619 245.065C571.417 244.955 571.235 244.859 571.036 244.742C553.573 258.395 541.211 278.247 537.246 300.993C537.64 301.035 538.052 301.079 538.468 301.114C540.243 301.306 542.251 301.522 544.438 301.755C546.669 302.051 549.086 302.38 551.647 302.73C554.204 303.036 556.926 303.499 559.752 303.966C562.58 304.437 565.512 304.91 568.482 305.405C571.461 305.985 574.489 306.575 577.517 307.166C577.531 307.166 577.541 307.166 577.558 307.166C575.533 308.175 573.48 309.198 571.382 310.242C568.447 311.711 565.536 313.328 562.57 314.89C559.615 316.479 556.655 318.058 553.748 319.627C550.857 321.272 548.011 322.892 545.265 324.471C542.505 326.04 539.831 327.568 537.328 329.133C537.129 329.25 536.944 329.359 536.748 329.483C539.937 352.435 551.633 372.662 568.568 386.861C568.801 386.545 569.052 386.205 569.295 385.868C570.349 384.42 571.534 382.796 572.824 381.018C574.201 379.233 575.694 377.307 577.273 375.261C578.825 373.194 580.583 371.066 582.399 368.862C584.218 366.637 586.096 364.348 588.008 362.017C590.003 359.734 592.024 357.399 594.053 355.072C594.057 355.065 594.067 355.048 594.077 355.041C593.937 357.296 593.796 359.586 593.652 361.917C593.453 365.202 593.398 368.536 593.274 371.883C593.164 375.233 593.058 378.591 592.951 381.886C592.938 385.213 592.927 388.491 592.914 391.656C592.893 394.842 592.879 397.915 592.982 400.87C592.986 401.107 592.996 401.32 592.996 401.547C603.587 405.845 615.149 408.213 627.274 408.213C638.286 408.213 648.836 406.27 658.612 402.703C658.444 402.333 658.28 401.938 658.101 401.547C657.377 399.912 656.556 398.072 655.664 396.061C654.809 393.977 653.879 391.718 652.904 389.336C651.894 386.957 650.923 384.368 649.924 381.697C648.911 379.006 647.861 376.229 646.807 373.414C645.815 370.541 644.812 367.619 643.806 364.708C643.803 364.698 643.8 364.684 643.793 364.663C645.681 365.927 647.589 367.187 649.539 368.484C652.275 370.283 655.138 372.003 657.977 373.788C660.827 375.553 663.679 377.324 666.484 379.068C669.361 380.74 672.186 382.394 674.922 383.991C677.669 385.587 680.322 387.142 682.931 388.526C683.137 388.642 683.319 388.738 683.515 388.852C700.981 375.196 713.34 355.353 717.308 332.604C716.914 332.559 716.502 332.514 716.086 332.48C714.308 332.288 712.307 332.078 710.116 331.845C707.885 331.543 705.465 331.217 702.907 330.86C700.346 330.561 697.627 330.101 694.802 329.634C691.973 329.164 689.042 328.687 686.072 328.192C683.093 327.612 680.065 327.018 677.037 326.431C677.023 326.431 677.013 326.431 676.996 326.431C679.021 325.415 681.074 324.396 683.168 323.348C686.107 321.889 689.021 320.266 691.987 318.707Z" fill="black"/>
</svg>
